<svg xmlns="http://www.w3.org/2000/svg" style="display: none;"><symbol id="dashboard" viewBox="0 0 384 384"><title>dashboard</title><rect x="213.333" y="0" width="170.667" height="128"/><rect x="0" y="0" width="170.667" height="213.333"/><rect x="0" y="256" width="170.667" height="128"/><rect x="213.333" y="170.667" width="170.667" height="213.333"/></symbol><symbol id="pie-chart-2" viewBox="0 0 512.548 512.548"><title>pie-chart-2</title><path style="fill:#FFC107;" d="M266.941,0c-5.891,0-10.667,4.776-10.667,10.667v234.667c0,5.891,4.776,10.667,10.667,10.667h234.667 c5.891,0,10.667-4.776,10.667-10.667C512.121,109.903,402.371,0.153,266.941,0z"/><path style="fill:#2196F3;" d="M382.034,452.117L234.941,263.019V32c0-5.891-4.776-10.667-10.667-10.667 c-123.52,0-224,110.059-224,245.333C0.427,402.097,110.177,511.847,245.607,512c49.173,3.821,97.795-12.45,134.763-45.099 C384.837,463.237,385.575,456.683,382.034,452.117z"/><path style="fill:#4CAF50;" d="M501.607,277.333H288.274c-5.891,0.001-10.666,4.778-10.664,10.669c0,2.437,0.835,4.8,2.366,6.696 l138.667,171.669c1.86,2.308,4.596,3.737,7.552,3.947h0.747c2.699,0.002,5.299-1.02,7.275-2.859 c49.69-46.469,77.943-111.423,78.059-179.456C512.274,282.109,507.499,277.333,501.607,277.333z"/></symbol><symbol id="pie-chart" viewBox="0 0 415 415"><title>pie-chart</title><path d="M192.5,30C86.185,30,0,116.185,0,222.5S86.185,415,192.5,415S385,328.815,385,222.5H192.5V30z"/><path d="M222.5,0v192.5H415C415,86.185,328.815,0,222.5,0z"/></symbol><symbol id="pie-chart-1" viewBox="0 0 323.97 323.97"><title>pie-chart-1</title><g> <g> <path d="M315.062,175.001h-112.28c-4.907,0-8.907,4-8.907,8.906c0,2.499,1.062,4.75,2.718,6.374l79.062,79.062 c1.624,1.75,3.97,2.845,6.533,2.845c3.093,0,5.811-1.563,7.405-3.938c19.438-22.563,31.938-51.219,34.189-82.75 c0.125-0.531,0.187-1.062,0.187-1.594C323.97,179.001,320,175.001,315.062,175.001z"/> </g> </g><g> <g> <path d="M168.875,13.594c-4.907,0.03-8.875,4-8.875,8.906v124.781c0,4.938,3.968,8.938,8.875,8.938h124.813 c4.907,0,8.906-4,8.906-8.938C298.187,75.47,240.718,18.001,168.875,13.594z"/> </g> </g><g> <g> <path d="M237.469,262.063l-92.062-92.062c-1.562-1.594-2.499-3.813-2.499-6.219L142.875,33.75c0-4.906-3.968-8.875-8.875-8.875 C59.219,29.438,0,91.562,0,167.47c0,78.906,63.97,142.906,142.875,142.906c36,0,68.875-13.312,94-35.282 c1.938-1.626,3.157-4.062,3.157-6.781C240.032,265.906,239.062,263.687,237.469,262.063z"/> </g> </g></symbol></svg>